<svg role="img" viewBox="0 0 20 20" width="20" height="20" xmlns="http://www.w3.org/2000/svg"><title>Phone icon</title>
<path stroke="rgba(207,117,90,1)" stroke-width="1.5" fill="none" d="M 18.33300018310547 14.10000038146973 L 18.33300018310547 16.60000038146973 C 18.33499908447266 17.06900024414063 18.13899993896484 17.51799964904785 17.79299926757813 17.83499908447266 C 17.44799995422363 18.15200042724609 16.98399925231934 18.30900001525879 16.51700019836426 18.26700019836426 C 13.95199966430664 17.98800086975098 11.48900032043457 17.11199951171875 9.324999809265137 15.70800018310547 C 7.311999797821045 14.42899990081787 5.604000091552734 12.72200012207031 4.324999809265137 10.70800018310547 C 2.91700005531311 8.534000396728516 2.039999961853027 6.059000015258789 1.766999959945679 3.483000040054321 C 1.725000023841858 3.016999959945679 1.879999995231628 2.555000066757202 2.196000099182129 2.210000038146973 C 2.510999917984009 1.863999962806702 2.957000017166138 1.66700005531311 3.424999952316284 1.66700005531311 L 5.925000190734863 1.66700005531311 C 6.76200008392334 1.657999992370605 7.474999904632568 2.272000074386597 7.592000007629395 3.099999904632568 C 7.697000026702881 3.900000095367432 7.89300012588501 4.685999870300293 8.175000190734863 5.441999912261963 C 8.404000282287598 6.051000118255615 8.258000373840332 6.736999988555908 7.800000190734863 7.199999809265137 L 6.742000102996826 8.258000373840332 C 7.927999973297119 10.34500026702881 9.654999732971191 12.07199954986572 11.74199962615967 13.25800037384033 L 12.80000019073486 12.19999980926514 C 13.26299953460693 11.74199962615967 13.94900035858154 11.5959997177124 14.55799961090088 11.82499980926514 C 15.31400012969971 12.10700035095215 16.10000038146973 12.30300045013428 16.89999961853027 12.40799999237061 C 17.73800086975098 12.52700042724609 18.35400009155273 13.25399971008301 18.33300018310547 14.10000038146973 Z">
</path>
</svg>