<svg role="img" viewBox="0 0 20 20" width="20" height="20" xmlns="http://www.w3.org/2000/svg"><title>Twitter icon</title>
<path stroke="rgba(207,117,90,1)" stroke-width="1.5" fill="none" d="M 19.16699981689453 2.5 C 18.36899948120117 3.062999963760376 17.48500061035156 3.493000030517578 16.54999923706055 3.775000095367432 C 15.52200031280518 2.592999935150146 13.86499977111816 2.177999973297119 12.40200042724609 2.736999988555908 C 10.9379997253418 3.296000003814697 9.979000091552734 4.709000110626221 10 6.275000095367432 L 10 7.107999801635742 C 7.026000022888184 7.184999942779541 4.210000038146973 5.76800012588501 2.5 3.33299994468689 C 2.5 3.33299994468689 -0.8330000042915344 10.83300018310547 6.666999816894531 14.16699981689453 C 4.949999809265137 15.33199977874756 2.905999898910522 15.91600036621094 0.8330000042915344 15.83300018310547 C 8.333000183105469 20 17.5 15.83300018310547 17.5 6.25 C 17.49900054931641 6.01800012588501 17.47699928283691 5.785999774932861 17.4330005645752 5.558000087738037 C 18.28400039672852 4.71999979019165 18.88400077819824 3.66100001335144 19.16699981689453 2.5 Z">
</path>
</svg>