<svg role="img" viewBox="0 0 20 20" width="20" height="20" xmlns="http://www.w3.org/2000/svg"><title>Youtube icon</title>
<path stroke="rgba(207,117,90,1)" stroke-width="1.5" fill="none" d="M 8.125 12.51700019836426 L 12.91699981689453 9.791999816894531 L 8.125 7.066999912261963 L 8.125 12.51700019836426 Z">
</path>
<path stroke="rgba(207,117,90,1)" stroke-width="1.5" fill="none" d="M 18.78300094604492 5.349999904632568 C 18.58200073242188 4.545000076293945 17.96500015258789 3.908999919891357 17.16699981689453 3.683000087738037 C 15.73299980163574 3.33299994468689 10 3.33299994468689 10 3.33299994468689 C 10 3.33299994468689 4.267000198364258 3.33299994468689 2.83299994468689 3.717000007629395 C 2.035000085830688 3.943000078201294 1.417999982833862 4.578000068664551 1.217000007629395 5.382999897003174 C 0.9539999961853027 6.837999820709229 0.8259999752044678 8.314000129699707 0.8330000042915344 9.791999816894531 C 0.8240000009536743 11.2810001373291 0.9520000219345093 12.76799964904785 1.217000007629395 14.23299980163574 C 1.439000010490417 15.01299953460693 2.052000045776367 15.61900043487549 2.83299994468689 15.83300018310547 C 4.267000198364258 16.21699905395508 10 16.21699905395508 10 16.21699905395508 C 10 16.21699905395508 15.73299980163574 16.21699905395508 17.16699981689453 15.83300018310547 C 17.96500015258789 15.60700035095215 18.58200073242188 14.97200012207031 18.78300094604492 14.16699981689453 C 19.04400062561035 12.72299957275391 19.17200088500977 11.25899982452393 19.16699981689453 9.791999816894531 C 19.17600059509277 8.302000045776367 19.04800033569336 6.815999984741211 18.78300094604492 5.349999904632568 Z">
</path>
</svg>